<svg width="931" height="546" viewBox="0 0 931 546" fill="none" xmlns="http://www.w3.org/2000/svg">
<path d="M470.525 5.93336C460.792 21 448.925 27.5334 414.258 37.5334C395.858 42.8667 379.325 48.4667 357.058 57C350.125 59.6667 340.258 62.7334 335.058 63.8C320.792 66.6 272.792 68.7334 243.325 67.9334C217.458 67.1334 216.925 67.2667 214.925 70.0667C212.258 73.9334 212.392 76.7334 215.592 79.6667C218.125 81.9334 221.192 82.0667 255.992 81.8C326.658 81.2667 341.458 78.6 416.925 52.4667C451.992 40.3334 465.992 33.5334 476.792 23.1334C484.125 16.0667 484.925 14.7334 484.925 9.93336C484.925 -0.866638 476.525 -3.26664 470.525 5.93336Z" fill="white"/>
<path d="M688.925 11.9333C639.325 13.2667 580.792 24.0667 490.258 48.4667C479.992 51.2667 477.458 52.0667 416.925 71.5333C376.392 84.4667 344.125 93.4 318.258 98.4667C303.858 101.267 294.792 102.2 272.925 102.867L245.725 103.667L243.725 108.867C241.858 113.8 241.858 114.2 244.792 116.467C247.458 118.733 250.258 119 267.458 119C307.325 118.867 338.658 112.6 418.925 88.3333C491.192 66.4667 509.058 61.2667 538.258 53.6667C578.258 43.1333 613.858 35.5333 638.658 32.2C664.792 28.7333 730.125 27.1333 749.725 29.5333C783.325 33.6667 806.258 39 819.592 45.6667C823.592 47.6667 828.925 49.8 831.192 50.3333C835.058 51.1333 835.725 50.7333 837.058 47.8C839.458 42.6 835.725 38.2 824.525 33C796.525 20.0667 743.592 10.0667 709.592 11.2667C705.192 11.4 695.858 11.6667 688.925 11.9333Z" fill="white"/>
<path d="M88.1248 35.5333C84.5248 38.0667 83.3248 43.5333 85.7248 46.6C87.3248 48.8667 93.3248 49 175.858 49.4C254.925 49.8 346.525 48.0667 359.992 46.0667C364.392 45.4 364.925 45 364.925 41.5333C364.925 38.2 364.258 37.5333 359.458 36.3333C355.592 35.2667 317.058 34.8667 229.858 35.1333C161.458 35.2667 102.258 35 98.2582 34.4667C92.6582 33.8 90.2582 33.9333 88.1248 35.5333Z" fill="white"/>
<path d="M44.3915 49.7999C39.0582 53.9333 39.4582 60.8666 45.3249 64.3333C51.0582 67.9333 53.0582 67.6666 57.4582 63.1333C62.2582 58.1999 61.4582 53.3999 55.1915 49.6666C49.8582 46.3333 48.7915 46.3333 44.3915 49.7999Z" fill="white"/>
<path d="M845.592 51C841.858 55.1333 842.392 61.5333 846.792 65.2666C851.192 69 854.792 68.4666 859.325 63.5333C862.925 59.4 863.058 56.3333 859.458 51.8C855.992 47.4 849.192 47 845.592 51Z" fill="white"/>
<path d="M634.925 52.4667C621.325 54.6 569.725 65.6667 552.658 70.2C538.125 73.9333 516.658 80.0667 484.258 89.8C482.125 90.4667 477.592 92.4667 474.258 94.0667C469.592 96.6 468.125 98.0667 467.458 101.533L466.525 106.067L473.592 105.133C481.458 104.2 489.725 102.067 538.258 88.6C568.792 80.0667 592.925 74.4667 631.592 67.1333C648.658 63.8 651.192 62.7333 652.258 57.8C652.658 55.5333 652.792 53.1333 652.258 52.3333C651.325 50.8667 644.658 50.8667 634.925 52.4667Z" fill="white"/>
<path d="M682.925 74.2C667.325 81.2667 663.725 103.933 676.125 117.4C684.392 126.6 700.525 126.6 710.925 117.533C724.125 105.8 721.325 81.9333 705.858 74.8667C699.325 71.9333 688.658 71.6667 682.925 74.2Z" fill="white"/>
<path d="M115.592 85.8C93.1915 88.7333 71.7249 97.6667 55.1915 111C22.6582 137.133 4.65818 170.733 0.791517 212.6C-4.27515 267.133 15.1915 315.8 53.1915 344.067C73.7249 359.4 99.0582 367 129.592 367C168.125 367 193.192 355.667 213.325 329.133C222.525 317.133 224.525 313 225.592 304.867C226.525 297.133 225.325 295 220.258 294.6C217.058 294.333 216.125 295.267 211.858 303C201.592 322.2 190.392 333.667 175.058 340.867C162.125 347 153.325 348.867 136.925 349C125.458 349 121.325 348.467 113.992 345.8C81.8582 334.2 59.3249 301.4 52.9249 257C50.9249 242.733 51.3249 208.467 53.7249 192.467C56.1249 176.2 63.4582 152.333 69.3249 141.667C78.1249 125.8 89.1915 115 104.258 107.667C121.058 99.4 141.192 97.9333 159.325 103.667C171.058 107.4 183.325 115.4 187.325 121.933C193.058 131.533 194.258 141.8 189.058 137.133C180.392 129.267 160.392 127.133 148.125 132.867C140.125 136.6 132.125 145.533 130.125 152.867C123.592 177 143.858 204.333 168.392 204.333C184.125 204.333 195.992 198.467 206.125 185.667C227.858 158.2 219.192 121.667 185.592 99.2667C166.658 86.4667 143.858 82.2 115.592 85.8Z" fill="white"/>
<path d="M815.591 85.6668C807.858 86.2001 792.391 86.7334 781.325 86.8668L760.925 87.0001V90.8668C760.925 93.0001 761.325 96.6001 761.725 98.8668C762.525 102.6 763.058 103 767.191 103C773.325 103 778.791 106.333 783.325 112.867L786.925 118.067L786.658 223.533C786.525 281.533 785.991 330.867 785.591 333.133C785.191 335.4 782.791 339.533 780.125 342.2C776.125 346.333 774.658 347 769.591 347H763.591V355V363L792.658 363.133C808.525 363.267 842.791 363.4 868.791 363.4L916.125 363.533L917.725 354.333C918.525 349.133 920.258 341.667 921.458 337.667C924.925 326.2 930.391 291.667 929.991 284.6L929.591 278.333L922.658 277.933C914.391 277.4 914.125 277.8 911.591 293.4C909.458 306.333 902.791 319.533 894.258 327.533C884.391 336.733 867.858 344.333 855.458 345.267C845.591 345.933 845.591 345.933 841.325 341.667C832.391 332.467 832.791 339.133 833.191 205.267C833.591 98.4668 833.325 84.3334 831.591 84.6001C830.525 84.7334 823.325 85.2668 815.591 85.6668Z" fill="white"/>
<path d="M438.258 107C435.192 112.867 442.792 118.333 449.725 115.133C451.458 114.333 452.925 112.867 452.925 111.667C452.925 108.333 447.858 104.333 443.592 104.333C441.058 104.333 439.192 105.267 438.258 107Z" fill="white"/>
<path d="M537.991 139C527.991 140.733 518.525 144.2 505.858 150.733C486.125 161.133 467.991 182.067 457.725 206.467C450.525 223.8 448.258 236.333 448.391 259C448.525 282.867 452.125 298.2 461.725 316.333C472.791 337.4 486.525 350.867 505.591 359.667C519.458 366.067 527.591 367.667 546.258 367.667C569.991 367.533 587.191 362.333 602.791 350.733C620.125 337.8 635.191 311.133 628.658 304.6C624.791 300.733 621.325 302.867 615.858 312.067C607.058 326.733 599.458 334.2 587.191 340.333C574.391 346.6 563.058 348.6 550.525 346.867C516.125 342.067 495.991 301.667 498.658 242.467C500.125 209.533 506.391 182.2 514.791 171.933C524.125 160.467 535.725 154.6 548.925 154.467C559.325 154.333 566.258 157.4 566.258 162.2C566.258 163.8 564.791 169.667 562.925 175C552.925 204.6 565.991 230.467 590.925 230.2C624.925 229.8 635.058 187.133 607.458 160.333C597.991 151.133 580.258 143 562.658 139.533C551.858 137.533 547.591 137.4 537.991 139Z" fill="white"/>
<path d="M318.925 141.533C308.125 144.6 296.258 151.133 285.992 159.667C257.592 183 242.925 220.333 245.592 262.067C247.592 293.133 254.525 313.133 270.125 332.733C288.792 356.2 312.125 367 343.992 367C379.192 366.867 402.258 353.267 423.325 319.933C428.658 311.533 428.792 306.867 424.125 303.133C418.125 298.467 416.258 299.4 410.792 309.667C404.258 322.067 396.925 330.2 385.192 337.8C358.925 355 328.125 347.667 310.125 319.933C302.525 308.2 297.592 290.333 294.792 264.6L293.858 256.333H325.725C360.925 256.333 370.125 255 382.925 248.867C393.592 243.533 407.458 230.333 413.058 220.067C417.192 212.333 417.592 210.733 417.592 200.333C417.592 190.2 417.058 187.933 413.325 180.2C404.525 162.467 383.992 146.867 361.458 141C350.925 138.333 329.192 138.467 318.925 141.533ZM351.992 157.667C364.125 165.267 370.658 180.6 370.792 201.133C370.925 212.067 370.525 213.933 366.658 221.8C358.658 238.067 356.525 238.733 318.658 238.867C298.925 239 294.258 238.6 294.258 237.133C294.258 229.933 298.658 194.067 300.258 187.8C304.658 170.867 312.925 161.267 327.325 156.067C337.192 152.467 344.658 153 351.992 157.667Z" fill="white"/>
<path d="M708.792 147.533C706.525 149.8 676.792 154.067 662.658 154.2L646.258 154.333V159.667C646.258 166.6 647.192 167.8 653.192 168.733C659.192 169.667 663.592 172.733 667.725 178.867L670.925 183.4L670.392 258.867C669.992 340.2 670.125 338.467 662.792 344.2C660.258 346.2 657.325 347 652.792 347H646.258V355V363H689.458C713.192 363 734.525 363.4 736.792 363.8L740.925 364.6V356.067V347.4L734.392 346.6C725.725 345.533 722.792 343.533 719.325 336.467C716.525 330.733 716.525 329.933 716.792 238.867L717.058 147H713.192C711.058 147 709.058 147.267 708.792 147.533Z" fill="white"/>
<path d="M702.258 389.667C678.925 390.733 671.725 391.8 632.925 399C572.258 410.333 515.058 423.533 465.591 437.667C375.858 463.267 294.525 480.733 249.591 484.333C220.391 486.6 160.125 485.933 138.258 483C95.0581 477.267 68.1248 464.2 58.5248 444.2C54.6581 436.333 54.7915 429.4 58.9248 418.467C62.7915 408.067 63.0581 404.867 60.1248 403.8C56.6581 402.467 49.9915 407.133 45.3248 414.067C35.0581 429.267 39.0581 450.733 55.1915 466.867C82.9248 494.467 136.658 505.667 221.591 501.667C259.191 499.933 286.658 496.067 338.791 485.667C392.791 474.733 406.791 471.267 500.258 445.667C529.591 437.667 549.591 433.133 630.258 416.467C679.458 406.2 678.658 406.333 744.258 406.333C807.458 406.333 811.458 406.733 824.125 413.4C832.525 417.933 840.258 426.867 842.925 435.133C844.791 440.733 844.925 442.867 843.591 448.067C838.525 468.467 820.658 479.533 787.058 482.867C777.725 483.8 732.391 484.333 661.991 484.333C538.925 484.333 543.058 484.067 543.858 492.6C544.125 495.933 545.058 497 547.858 497.8C553.991 499.4 789.858 498.067 799.325 496.467C820.258 492.6 837.591 484.333 846.258 473.933C848.391 471.267 852.658 464.2 855.725 458.2C860.925 447.933 861.325 446.733 860.658 438.733C859.058 418.867 845.725 403.4 824.391 396.467C805.858 390.467 750.525 387.4 702.258 389.667Z" fill="white"/>
<path d="M182.258 395C95.8582 395.667 94.6582 395.8 90.5248 400.733C89.1915 402.333 89.8582 403 94.5248 404.333C103.192 406.733 168.925 408.2 245.992 407.8C314.525 407.4 314.925 407.4 321.325 404.467C324.792 402.733 327.592 401 327.592 400.467C327.458 395.267 317.192 393.667 286.925 394.067C275.992 394.2 228.792 394.6 182.258 395Z" fill="white"/>
<path d="M445.591 399.933C443.725 402.733 442.258 405.933 442.258 407.133C442.258 408.6 440.658 409.667 437.325 410.333C434.525 410.867 430.791 412.067 428.925 413C420.125 417.533 343.325 437.667 307.591 444.867C275.191 451.4 262.125 452.333 195.991 453.4C146.258 454.2 132.791 454.733 131.058 456.2C128.391 458.467 128.258 466.467 130.925 467.4C133.991 468.6 249.591 465.933 262.925 464.333C299.458 460.067 347.191 450.867 383.592 441C403.458 435.667 434.391 425.667 440.125 422.733C443.058 421.267 448.125 419.267 451.591 418.2C461.058 415.4 464.925 411.8 464.925 405.933C464.925 400.2 463.991 398.6 459.991 396.467C454.125 393.4 449.325 394.6 445.591 399.933Z" fill="white"/>
<path d="M350.791 401.8C348.525 403.133 342.258 405 336.791 405.933L326.925 407.533L331.191 411.933C334.925 415.667 336.391 416.333 341.858 416.333C351.858 416.2 361.325 412.467 362.791 407.933C365.458 400.333 358.658 396.867 350.791 401.8Z" fill="white"/>
<path d="M891.858 420.6C890.925 421.533 890.258 424.467 890.258 427.4C890.258 431.933 890.792 432.733 894.792 434.333C899.725 436.333 902.658 435.933 906.658 432.6C909.858 429.8 909.592 423.667 905.992 421.133C902.392 418.6 894.125 418.333 891.858 420.6Z" fill="white"/>
<path d="M231.592 425.667C207.058 426.2 169.725 426.733 148.658 426.867L110.258 427L108.258 430.2C105.992 433.667 106.792 437.133 110.258 439C115.325 441.667 276.392 437.667 300.658 434.2C306.792 433.267 311.458 429 308.792 426.333C307.058 424.6 288.258 424.467 231.592 425.667Z" fill="white"/>
<path d="M673.592 427.8C636.525 430.2 635.858 430.333 638.392 437.4L639.592 440.6L709.725 440.067C776.392 439.533 779.992 439.4 781.725 437C784.125 433.667 784.125 430.333 781.458 427.8C779.725 425.933 774.125 425.667 739.858 425.8C718.125 425.933 688.258 426.867 673.592 427.8Z" fill="white"/>
<path d="M574.258 450.6C572.391 450.867 565.591 451.933 558.925 453C524.391 458.6 459.191 477.267 436.258 488.2C428.258 491.933 423.325 495.4 416.658 502.2C411.725 507.267 406.791 513.4 405.458 516.067C400.391 526.867 401.991 538.6 409.458 543.133C419.725 549.4 425.858 543.133 419.458 532.867C417.058 528.867 416.925 527.8 418.258 523.667C419.191 521 422.791 516.067 426.391 512.467C438.658 500.333 463.991 490.067 512.125 477.8C560.925 465.267 552.658 465.8 669.325 466.6C779.858 467.533 774.125 467.8 774.258 460.733C774.258 454.6 772.525 454.467 695.591 453.4C655.591 452.867 618.391 451.933 612.925 451.133C603.191 449.8 580.925 449.533 574.258 450.6Z" fill="white"/>
</svg>
