<svg width="931" height="546" viewBox="0 0 931 546" fill="none" xmlns="http://www.w3.org/2000/svg">
<path d="M470.933 5.93336C461.2 21 449.333 27.5334 414.667 37.5334C396.267 42.8667 379.733 48.4667 357.467 57C350.533 59.6667 340.667 62.7334 335.467 63.8C321.2 66.6 273.2 68.7334 243.733 67.9334C217.867 67.1334 217.333 67.2667 215.333 70.0667C212.667 73.9334 212.8 76.7334 216 79.6667C218.533 81.9334 221.6 82.0667 256.4 81.8C327.067 81.2667 341.867 78.6 417.333 52.4667C452.4 40.3334 466.4 33.5334 477.2 23.1334C484.533 16.0667 485.333 14.7334 485.333 9.93336C485.333 -0.866638 476.933 -3.26664 470.933 5.93336Z" fill="black"/>
<path d="M689.333 11.9333C639.733 13.2667 581.2 24.0667 490.667 48.4667C480.4 51.2667 477.867 52.0667 417.333 71.5333C376.8 84.4667 344.533 93.4 318.667 98.4667C304.267 101.267 295.2 102.2 273.333 102.867L246.133 103.667L244.133 108.867C242.267 113.8 242.267 114.2 245.2 116.467C247.867 118.733 250.667 119 267.867 119C307.733 118.867 339.067 112.6 419.333 88.3333C491.6 66.4667 509.467 61.2667 538.667 53.6667C578.667 43.1333 614.267 35.5333 639.067 32.2C665.2 28.7333 730.533 27.1333 750.133 29.5333C783.733 33.6667 806.667 39 820 45.6667C824 47.6667 829.333 49.8 831.6 50.3333C835.467 51.1333 836.133 50.7333 837.467 47.8C839.867 42.6 836.133 38.2 824.933 33C796.933 20.0667 744 10.0667 710 11.2667C705.6 11.4 696.267 11.6667 689.333 11.9333Z" fill="black"/>
<path d="M88.5333 35.5333C84.9333 38.0667 83.7333 43.5333 86.1333 46.6C87.7333 48.8667 93.7333 49 176.267 49.4C255.333 49.8 346.933 48.0667 360.4 46.0667C364.8 45.4 365.333 45 365.333 41.5333C365.333 38.2 364.667 37.5333 359.867 36.3333C356 35.2667 317.467 34.8667 230.267 35.1333C161.867 35.2667 102.667 35 98.6666 34.4667C93.0666 33.8 90.6666 33.9333 88.5333 35.5333Z" fill="black"/>
<path d="M44.8 49.7999C39.4667 53.9333 39.8667 60.8666 45.7334 64.3333C51.4667 67.9333 53.4667 67.6666 57.8667 63.1333C62.6667 58.1999 61.8667 53.3999 55.6 49.6666C50.2667 46.3333 49.2 46.3333 44.8 49.7999Z" fill="black"/>
<path d="M846 51C842.267 55.1333 842.8 61.5333 847.2 65.2666C851.6 69 855.2 68.4666 859.733 63.5333C863.333 59.4 863.467 56.3333 859.867 51.8C856.4 47.4 849.6 47 846 51Z" fill="black"/>
<path d="M635.333 52.4667C621.733 54.6 570.133 65.6667 553.067 70.2C538.533 73.9333 517.067 80.0667 484.667 89.8C482.533 90.4667 478 92.4667 474.667 94.0667C470 96.6 468.533 98.0667 467.867 101.533L466.933 106.067L474 105.133C481.867 104.2 490.133 102.067 538.667 88.6C569.2 80.0667 593.333 74.4667 632 67.1333C649.067 63.8 651.6 62.7333 652.667 57.8C653.067 55.5333 653.2 53.1333 652.667 52.3333C651.733 50.8667 645.067 50.8667 635.333 52.4667Z" fill="black"/>
<path d="M683.333 74.2C667.733 81.2667 664.133 103.933 676.533 117.4C684.8 126.6 700.933 126.6 711.333 117.533C724.533 105.8 721.733 81.9333 706.267 74.8667C699.733 71.9333 689.067 71.6667 683.333 74.2Z" fill="black"/>
<path d="M116 85.8C93.6 88.7333 72.1333 97.6667 55.6 111C23.0667 137.133 5.06666 170.733 1.2 212.6C-3.86667 267.133 15.6 315.8 53.6 344.067C74.1333 359.4 99.4667 367 130 367C168.533 367 193.6 355.667 213.733 329.133C222.933 317.133 224.933 313 226 304.867C226.933 297.133 225.733 295 220.667 294.6C217.467 294.333 216.533 295.267 212.267 303C202 322.2 190.8 333.667 175.467 340.867C162.533 347 153.733 348.867 137.333 349C125.867 349 121.733 348.467 114.4 345.8C82.2667 334.2 59.7333 301.4 53.3333 257C51.3333 242.733 51.7333 208.467 54.1333 192.467C56.5333 176.2 63.8667 152.333 69.7333 141.667C78.5333 125.8 89.6 115 104.667 107.667C121.467 99.4 141.6 97.9333 159.733 103.667C171.467 107.4 183.733 115.4 187.733 121.933C193.467 131.533 194.667 141.8 189.467 137.133C180.8 129.267 160.8 127.133 148.533 132.867C140.533 136.6 132.533 145.533 130.533 152.867C124 177 144.267 204.333 168.8 204.333C184.533 204.333 196.4 198.467 206.533 185.667C228.267 158.2 219.6 121.667 186 99.2667C167.067 86.4667 144.267 82.2 116 85.8Z" fill="black"/>
<path d="M816 85.6668C808.267 86.2001 792.8 86.7334 781.733 86.8668L761.333 87.0001V90.8668C761.333 93.0001 761.733 96.6001 762.133 98.8668C762.933 102.6 763.467 103 767.6 103C773.733 103 779.2 106.333 783.733 112.867L787.333 118.067L787.067 223.533C786.933 281.533 786.4 330.867 786 333.133C785.6 335.4 783.2 339.533 780.533 342.2C776.533 346.333 775.067 347 770 347H764V355V363L793.067 363.133C808.933 363.267 843.2 363.4 869.2 363.4L916.533 363.533L918.133 354.333C918.933 349.133 920.667 341.667 921.867 337.667C925.333 326.2 930.8 291.667 930.4 284.6L930 278.333L923.067 277.933C914.8 277.4 914.533 277.8 912 293.4C909.867 306.333 903.2 319.533 894.667 327.533C884.8 336.733 868.267 344.333 855.867 345.267C846 345.933 846 345.933 841.733 341.667C832.8 332.467 833.2 339.133 833.6 205.267C834 98.4668 833.733 84.3334 832 84.6001C830.933 84.7334 823.733 85.2668 816 85.6668Z" fill="black"/>
<path d="M438.667 107C435.6 112.867 443.2 118.333 450.133 115.133C451.867 114.333 453.333 112.867 453.333 111.667C453.333 108.333 448.267 104.333 444 104.333C441.467 104.333 439.6 105.267 438.667 107Z" fill="black"/>
<path d="M538.4 139C528.4 140.733 518.933 144.2 506.267 150.733C486.533 161.133 468.4 182.067 458.133 206.467C450.933 223.8 448.667 236.333 448.8 259C448.933 282.867 452.533 298.2 462.133 316.333C473.2 337.4 486.933 350.867 506 359.667C519.867 366.067 528 367.667 546.667 367.667C570.4 367.533 587.6 362.333 603.2 350.733C620.533 337.8 635.6 311.133 629.067 304.6C625.2 300.733 621.733 302.867 616.267 312.067C607.467 326.733 599.867 334.2 587.6 340.333C574.8 346.6 563.467 348.6 550.933 346.867C516.533 342.067 496.4 301.667 499.067 242.467C500.533 209.533 506.8 182.2 515.2 171.933C524.533 160.467 536.133 154.6 549.333 154.467C559.733 154.333 566.667 157.4 566.667 162.2C566.667 163.8 565.2 169.667 563.333 175C553.333 204.6 566.4 230.467 591.333 230.2C625.333 229.8 635.467 187.133 607.867 160.333C598.4 151.133 580.667 143 563.067 139.533C552.267 137.533 548 137.4 538.4 139Z" fill="black"/>
<path d="M319.333 141.533C308.533 144.6 296.667 151.133 286.4 159.667C258 183 243.333 220.333 246 262.067C248 293.133 254.933 313.133 270.533 332.733C289.2 356.2 312.533 367 344.4 367C379.6 366.867 402.667 353.267 423.733 319.933C429.067 311.533 429.2 306.867 424.533 303.133C418.533 298.467 416.667 299.4 411.2 309.667C404.667 322.067 397.333 330.2 385.6 337.8C359.333 355 328.533 347.667 310.533 319.933C302.933 308.2 298 290.333 295.2 264.6L294.267 256.333H326.133C361.333 256.333 370.533 255 383.333 248.867C394 243.533 407.867 230.333 413.467 220.067C417.6 212.333 418 210.733 418 200.333C418 190.2 417.467 187.933 413.733 180.2C404.933 162.467 384.4 146.867 361.867 141C351.333 138.333 329.6 138.467 319.333 141.533ZM352.4 157.667C364.533 165.267 371.067 180.6 371.2 201.133C371.333 212.067 370.933 213.933 367.067 221.8C359.067 238.067 356.933 238.733 319.067 238.867C299.333 239 294.667 238.6 294.667 237.133C294.667 229.933 299.067 194.067 300.667 187.8C305.067 170.867 313.333 161.267 327.733 156.067C337.6 152.467 345.067 153 352.4 157.667Z" fill="black"/>
<path d="M709.2 147.533C706.933 149.8 677.2 154.067 663.067 154.2L646.667 154.333V159.667C646.667 166.6 647.6 167.8 653.6 168.733C659.6 169.667 664 172.733 668.133 178.867L671.333 183.4L670.8 258.867C670.4 340.2 670.533 338.467 663.2 344.2C660.667 346.2 657.733 347 653.2 347H646.667V355V363H689.867C713.6 363 734.933 363.4 737.2 363.8L741.333 364.6V356.067V347.4L734.8 346.6C726.133 345.533 723.2 343.533 719.733 336.467C716.933 330.733 716.933 329.933 717.2 238.867L717.467 147H713.6C711.467 147 709.467 147.267 709.2 147.533Z" fill="black"/>
<path d="M702.667 389.667C679.333 390.733 672.133 391.8 633.333 399C572.667 410.333 515.467 423.533 466 437.667C376.267 463.267 294.933 480.733 250 484.333C220.8 486.6 160.533 485.933 138.667 483C95.4666 477.267 68.5333 464.2 58.9333 444.2C55.0666 436.333 55.2 429.4 59.3333 418.467C63.2 408.067 63.4666 404.867 60.5333 403.8C57.0666 402.467 50.4 407.133 45.7333 414.067C35.4666 429.267 39.4666 450.733 55.6 466.867C83.3333 494.467 137.067 505.667 222 501.667C259.6 499.933 287.067 496.067 339.2 485.667C393.2 474.733 407.2 471.267 500.667 445.667C530 437.667 550 433.133 630.667 416.467C679.867 406.2 679.067 406.333 744.667 406.333C807.867 406.333 811.867 406.733 824.533 413.4C832.933 417.933 840.667 426.867 843.333 435.133C845.2 440.733 845.333 442.867 844 448.067C838.933 468.467 821.067 479.533 787.467 482.867C778.133 483.8 732.8 484.333 662.4 484.333C539.333 484.333 543.467 484.067 544.267 492.6C544.533 495.933 545.467 497 548.267 497.8C554.4 499.4 790.267 498.067 799.733 496.467C820.667 492.6 838 484.333 846.667 473.933C848.8 471.267 853.067 464.2 856.133 458.2C861.333 447.933 861.733 446.733 861.067 438.733C859.467 418.867 846.133 403.4 824.8 396.467C806.267 390.467 750.933 387.4 702.667 389.667Z" fill="black"/>
<path d="M182.667 395C96.2667 395.667 95.0667 395.8 90.9333 400.733C89.6 402.333 90.2667 403 94.9333 404.333C103.6 406.733 169.333 408.2 246.4 407.8C314.933 407.4 315.333 407.4 321.733 404.467C325.2 402.733 328 401 328 400.467C327.867 395.267 317.6 393.667 287.333 394.067C276.4 394.2 229.2 394.6 182.667 395Z" fill="black"/>
<path d="M446 399.933C444.133 402.733 442.667 405.933 442.667 407.133C442.667 408.6 441.067 409.667 437.733 410.333C434.933 410.867 431.2 412.067 429.333 413C420.533 417.533 343.733 437.667 308 444.867C275.6 451.4 262.533 452.333 196.4 453.4C146.667 454.2 133.2 454.733 131.467 456.2C128.8 458.467 128.667 466.467 131.333 467.4C134.4 468.6 250 465.933 263.333 464.333C299.867 460.067 347.6 450.867 384 441C403.867 435.667 434.8 425.667 440.533 422.733C443.467 421.267 448.533 419.267 452 418.2C461.467 415.4 465.333 411.8 465.333 405.933C465.333 400.2 464.4 398.6 460.4 396.467C454.533 393.4 449.733 394.6 446 399.933Z" fill="black"/>
<path d="M351.2 401.8C348.933 403.133 342.667 405 337.2 405.933L327.333 407.533L331.6 411.933C335.333 415.667 336.8 416.333 342.267 416.333C352.267 416.2 361.733 412.467 363.2 407.933C365.867 400.333 359.067 396.867 351.2 401.8Z" fill="black"/>
<path d="M892.267 420.6C891.333 421.533 890.667 424.467 890.667 427.4C890.667 431.933 891.2 432.733 895.2 434.333C900.133 436.333 903.067 435.933 907.067 432.6C910.267 429.8 910 423.667 906.4 421.133C902.8 418.6 894.533 418.333 892.267 420.6Z" fill="black"/>
<path d="M232 425.667C207.467 426.2 170.133 426.733 149.067 426.867L110.667 427L108.667 430.2C106.4 433.667 107.2 437.133 110.667 439C115.733 441.667 276.8 437.667 301.067 434.2C307.2 433.267 311.867 429 309.2 426.333C307.467 424.6 288.667 424.467 232 425.667Z" fill="black"/>
<path d="M674 427.8C636.933 430.2 636.267 430.333 638.8 437.4L640 440.6L710.133 440.067C776.8 439.533 780.4 439.4 782.133 437C784.533 433.667 784.533 430.333 781.867 427.8C780.133 425.933 774.533 425.667 740.267 425.8C718.533 425.933 688.667 426.867 674 427.8Z" fill="black"/>
<path d="M574.667 450.6C572.8 450.867 566 451.933 559.333 453C524.8 458.6 459.6 477.267 436.667 488.2C428.667 491.933 423.733 495.4 417.067 502.2C412.133 507.267 407.2 513.4 405.867 516.067C400.8 526.867 402.4 538.6 409.867 543.133C420.133 549.4 426.267 543.133 419.867 532.867C417.467 528.867 417.333 527.8 418.667 523.667C419.6 521 423.2 516.067 426.8 512.467C439.067 500.333 464.4 490.067 512.533 477.8C561.333 465.267 553.067 465.8 669.733 466.6C780.267 467.533 774.533 467.8 774.667 460.733C774.667 454.6 772.933 454.467 696 453.4C656 452.867 618.8 451.933 613.333 451.133C603.6 449.8 581.333 449.533 574.667 450.6Z" fill="black"/>
</svg>
